<?xml version="1.0" encoding="utf-8"?>
<svg id="artwork" enable-background="new 0 0 88.5 25.5" viewBox="0 0 88.5 25.5" xmlns="http://www.w3.org/2000/svg">
   <path id="green" d="m13.1 2.9h-10.9c-1.2 0-2.2 1-2.2 2.2 0 0 0 0 0 0v11.4c0-.3.1-.6.3-.8z" fill="#34a853"/>
   <path id="blue" d="m29.9 25.5h-27.7c-1.2 0-2.2-1-2.2-2.2l0 0v-6.8c0-.3.1-.6.3-.8l15.4-15.4c.2-.2.5-.3.8-.3h13.4c1.2 0 2.2 1 2.2 2.2v21.2c0 1.2-1 2.1-2.2 2.1 0 0 0 0 0 0z" fill="#4285f4"/>
   <path id="red" d="m15.7.3l-15.4 15.4c-.2.2-.3.5-.3.8v.1c0-.3.2-.5.5-.5h13.3c1.2 0 2.2-1 2.2-2.2 0 0 0 0 0 0v-13.3c0-.3.2-.5.5-.6h-.1c-.2 0-.5.1-.7.3z" fill="#ea4335"/>
   <path id="yellow" d="m0 16.6c0-.4.3-.8.7-.9l9.7-3.1c1-.3 1.8-1.1 2.1-2.1l3.1-9.7c.1-.4.5-.7 1-.7h-.1c-.3 0-.6.1-.8.3l-15.4 15.3c-.2.2-.3.5-.3.9z" fill="#fbbc04"/>
   <path d="m49 13.9v7.1h-2.1v-16.5h9.6v2h-7.5v5.4h6.8v2zm12-8.1c0 .8-.7 1.5-1.5 1.5s-1.5-.6-1.5-1.5c0-.4.2-.8.4-1.1.6-.6 1.5-.6 2.1 0 .3.3.5.7.5 1.1zm-.5 3.9v11.3h-2.1v-11.3zm4.7-5.2v16.5h-2.1v-16.5zm7.5 16.9c-1.5 0-3-.6-4.1-1.7-1.1-1.2-1.7-2.7-1.6-4.3-.1-1.6.5-3.1 1.5-4.3 1-1.1 2.5-1.8 4-1.7 1.5-.1 3 .5 4 1.6 1.1 1.3 1.6 2.9 1.5 4.5v.2h-8.8c0 1 .4 2 1.1 2.7 1.4 1.4 3.7 1.3 5-.1.3-.3.5-.6.7-.9l1.9.9c-.5.9-1.2 1.7-2.1 2.2-1 .6-2 .9-3.1.9zm-3.4-7.4h6.5c-.1-.8-.4-1.5-1-2-.6-.5-1.4-.8-2.3-.8-.8 0-1.5.2-2.1.7-.5.6-.9 1.3-1.1 2.1zm19.2 3.9c0 1-.5 1.9-1.3 2.5-.9.7-2.1 1-3.2 1-1.1 0-2.1-.3-3-.9-.8-.6-1.5-1.4-1.8-2.3l1.9-.8c.2.6.7 1.2 1.2 1.6 1 .7 2.4.7 3.4.1.4-.2.6-.6.7-1 0-.7-.6-1.2-1.7-1.6l-1.9-.5c-2.2-.5-3.3-1.6-3.3-3.2 0-1 .4-1.9 1.2-2.5 1.8-1.2 4-1.2 5.9-.2.8.4 1.4 1.1 1.7 1.9l-1.9.8c-.2-.5-.6-.9-1-1.1-.5-.3-1.1-.4-1.6-.4-.5 0-1 .1-1.5.4-.4.2-.6.6-.7 1 0 .6.6 1.1 1.8 1.4l1.7.4c2.3.5 3.4 1.6 3.4 3.4z" fill="#5f6368"/>
</svg>
